<svg width="155" height="41" viewBox="0 0 155 41" fill="none" xmlns="http://www.w3.org/2000/svg">
<path d="M20.5 41C31.8218 41 41 31.8218 41 20.5C41 9.17816 31.8218 0 20.5 0C9.17816 0 0 9.17816 0 20.5C0 31.8218 9.17816 41 20.5 41Z" fill="white"/>
<path d="M18.032 13.756H12V11H27.47V13.756H21.412V29.512H18.032V13.756Z" fill="#5B9BF3"/>
<path d="M54.856 13.456H49.288V10.912H63.568V13.456H57.976V28H54.856V13.456ZM70.1209 15.592C70.5849 15.592 70.9849 15.656 71.3209 15.784L71.2969 18.52C70.7849 18.312 70.2569 18.208 69.7129 18.208C68.6889 18.208 67.9049 18.504 67.3609 19.096C66.8329 19.688 66.5689 20.472 66.5689 21.448V28H63.5929V19.312C63.5929 18.032 63.5289 16.888 63.4009 15.88H66.2089L66.4489 18.016C66.7529 17.232 67.2329 16.632 67.8889 16.216C68.5449 15.8 69.2889 15.592 70.1209 15.592ZM84.349 15.88V28H81.397V26.056C81.029 26.728 80.501 27.256 79.813 27.64C79.125 28.008 78.341 28.192 77.461 28.192C76.405 28.192 75.469 27.936 74.653 27.424C73.837 26.912 73.205 26.184 72.757 25.24C72.309 24.296 72.085 23.2 72.085 21.952C72.085 20.704 72.309 19.6 72.757 18.64C73.221 17.664 73.861 16.912 74.677 16.384C75.493 15.84 76.421 15.568 77.461 15.568C78.341 15.568 79.125 15.76 79.813 16.144C80.501 16.512 81.029 17.032 81.397 17.704V15.88H84.349ZM78.277 25.84C79.269 25.84 80.037 25.496 80.581 24.808C81.125 24.12 81.397 23.152 81.397 21.904C81.397 20.624 81.125 19.64 80.581 18.952C80.037 18.264 79.261 17.92 78.253 17.92C77.261 17.92 76.485 18.28 75.925 19C75.381 19.704 75.109 20.688 75.109 21.952C75.109 23.2 75.381 24.16 75.925 24.832C76.485 25.504 77.269 25.84 78.277 25.84ZM93.3524 12.712C92.0564 12.712 91.4084 13.424 91.4084 14.848V15.88H94.1204V18.136H91.4084V28H88.4084V18.136H86.1044V15.88H88.4084V14.704C88.4084 13.264 88.7684 12.16 89.4884 11.392C90.2244 10.608 91.2724 10.216 92.6324 10.216C93.3844 10.216 94.0164 10.312 94.5284 10.504V12.88C94.0804 12.768 93.6884 12.712 93.3524 12.712ZM107.904 15.88V28H104.952V26.056C104.584 26.728 104.056 27.256 103.368 27.64C102.68 28.008 101.896 28.192 101.016 28.192C99.9597 28.192 99.0237 27.936 98.2077 27.424C97.3917 26.912 96.7597 26.184 96.3117 25.24C95.8637 24.296 95.6397 23.2 95.6397 21.952C95.6397 20.704 95.8637 19.6 96.3117 18.64C96.7757 17.664 97.4157 16.912 98.2317 16.384C99.0477 15.84 99.9757 15.568 101.016 15.568C101.896 15.568 102.68 15.76 103.368 16.144C104.056 16.512 104.584 17.032 104.952 17.704V15.88H107.904ZM101.832 25.84C102.824 25.84 103.592 25.496 104.136 24.808C104.68 24.12 104.952 23.152 104.952 21.904C104.952 20.624 104.68 19.64 104.136 18.952C103.592 18.264 102.816 17.92 101.808 17.92C100.816 17.92 100.04 18.28 99.4797 19C98.9357 19.704 98.6637 20.688 98.6637 21.952C98.6637 23.2 98.9357 24.16 99.4797 24.832C100.04 25.504 100.824 25.84 101.832 25.84ZM111.171 10.336H114.147V28H111.171V10.336ZM129.141 15.88V27.616C129.141 29.504 128.621 30.936 127.581 31.912C126.541 32.888 125.013 33.376 122.997 33.376C121.125 33.376 119.477 32.984 118.053 32.2L118.533 29.92C120.005 30.688 121.469 31.072 122.925 31.072C125.085 31.072 126.165 30 126.165 27.856V25.456C125.797 26.112 125.261 26.648 124.557 27.064C123.853 27.464 123.061 27.664 122.181 27.664C121.125 27.664 120.181 27.416 119.349 26.92C118.533 26.408 117.893 25.696 117.429 24.784C116.981 23.856 116.757 22.8 116.757 21.616C116.757 20.432 116.981 19.384 117.429 18.472C117.893 17.544 118.533 16.832 119.349 16.336C120.181 15.824 121.125 15.568 122.181 15.568C123.077 15.568 123.869 15.76 124.557 16.144C125.261 16.512 125.797 17.032 126.165 17.704V15.88H129.141ZM122.973 25.312C123.965 25.312 124.741 24.984 125.301 24.328C125.877 23.672 126.165 22.768 126.165 21.616C126.165 20.464 125.885 19.56 125.325 18.904C124.765 18.248 123.981 17.92 122.973 17.92C121.981 17.92 121.197 18.248 120.621 18.904C120.061 19.56 119.781 20.464 119.781 21.616C119.781 22.768 120.061 23.672 120.621 24.328C121.197 24.984 121.981 25.312 122.973 25.312ZM143.974 15.88V28H141.022V26.056C140.654 26.728 140.126 27.256 139.438 27.64C138.75 28.008 137.966 28.192 137.086 28.192C136.03 28.192 135.094 27.936 134.278 27.424C133.462 26.912 132.83 26.184 132.382 25.24C131.934 24.296 131.71 23.2 131.71 21.952C131.71 20.704 131.934 19.6 132.382 18.64C132.846 17.664 133.486 16.912 134.302 16.384C135.118 15.84 136.046 15.568 137.086 15.568C137.966 15.568 138.75 15.76 139.438 16.144C140.126 16.512 140.654 17.032 141.022 17.704V15.88H143.974ZM137.902 25.84C138.894 25.84 139.662 25.496 140.206 24.808C140.75 24.12 141.022 23.152 141.022 21.904C141.022 20.624 140.75 19.64 140.206 18.952C139.662 18.264 138.886 17.92 137.878 17.92C136.886 17.92 136.11 18.28 135.55 19C135.006 19.704 134.734 20.688 134.734 21.952C134.734 23.2 135.006 24.16 135.55 24.832C136.11 25.504 136.894 25.84 137.902 25.84ZM153.769 15.592C154.233 15.592 154.633 15.656 154.969 15.784L154.945 18.52C154.433 18.312 153.905 18.208 153.361 18.208C152.337 18.208 151.553 18.504 151.009 19.096C150.481 19.688 150.217 20.472 150.217 21.448V28H147.241V19.312C147.241 18.032 147.177 16.888 147.049 15.88H149.857L150.097 18.016C150.401 17.232 150.881 16.632 151.537 16.216C152.193 15.8 152.937 15.592 153.769 15.592Z" fill="white"/>
</svg>
